<svg width="16" height="17" viewBox="0 0 16 17" fill="none" xmlns="http://www.w3.org/2000/svg">
<path d="M5.80792 13.9871L4.75182 14.0473L4.30117 5.29093L5.35728 5.23071L5.80792 13.9871Z" fill="#64B5F6" stroke="#E0F0FD" stroke-width="0.1"/>
<path d="M10.5201 5.29092L10.0684 14.0473L9.01227 13.987L9.46395 5.23056L10.5201 5.29092Z" fill="#64B5F6" stroke="#E0F0FD" stroke-width="0.1"/>
<path d="M6.88228 14.0125V5.26289H7.93996V14.0125H6.88228Z" fill="#64B5F6" stroke="#E0F0FD" stroke-width="0.1"/>
<path d="M10.1414 2.25734V2.30734H10.1914H14.9999V3.42591H13.4747H13.4282L13.4248 3.47227L12.4413 16.95H2.41878L1.43529 3.47227L1.43191 3.42591H1.38542H0.05V2.30734H4.63073H4.68073V2.25734V0.05H10.1414V2.25734ZM9.1027 1.19859V1.14859H9.0527H5.78841H5.73841V1.19859V2.23737V2.28737H5.78841H9.0527H9.1027V2.23737V1.19859ZM3.36624 15.7651L3.36961 15.8115H3.41611H11.387H11.4335L11.4369 15.7651L12.3479 3.45963L12.3518 3.40593H12.298H2.52413H2.47037L2.47426 3.45955L3.36624 15.7651Z" fill="#64B5F6" stroke="#E0F0FD" stroke-width="0.1"/>
</svg>
